<svg xmlns="http://www.w3.org/2000/svg" viewBox="0 0 800 400">
  <rect width="800" height="400" fill="#0a0a0f"/>
  <!-- Maze fragment -->
  <g stroke="#2a2a3a" stroke-width="1.5" fill="none">
    <!-- Outer border -->
    <rect x="200" y="40" width="400" height="240" stroke="#3a3a4a"/>
    <!-- Horizontal walls -->
    <line x1="200" y1="80" x2="280" y2="80"/>
    <line x1="320" y1="80" x2="440" y2="80"/>
    <line x1="520" y1="80" x2="600" y2="80"/>
    <line x1="240" y1="120" x2="360" y2="120"/>
    <line x1="400" y1="120" x2="480" y2="120"/>
    <line x1="520" y1="120" x2="560" y2="120"/>
    <line x1="200" y1="160" x2="280" y2="160"/>
    <line x1="320" y1="160" x2="400" y2="160"/>
    <line x1="480" y1="160" x2="600" y2="160"/>
    <line x1="240" y1="200" x2="320" y2="200"/>
    <line x1="400" y1="200" x2="520" y2="200"/>
    <line x1="560" y1="200" x2="600" y2="200"/>
    <line x1="200" y1="240" x2="280" y2="240"/>
    <line x1="360" y1="240" x2="440" y2="240"/>
    <line x1="480" y1="240" x2="560" y2="240"/>
    <!-- Vertical walls -->
    <line x1="280" y1="40" x2="280" y2="80"/>
    <line x1="360" y1="80" x2="360" y2="120"/>
    <line x1="440" y1="40" x2="440" y2="80"/>
    <line x1="520" y1="80" x2="520" y2="120"/>
    <line x1="240" y1="120" x2="240" y2="200"/>
    <line x1="480" y1="120" x2="480" y2="160"/>
    <line x1="320" y1="160" x2="320" y2="200"/>
    <line x1="560" y1="200" x2="560" y2="240"/>
    <line x1="400" y1="200" x2="400" y2="240"/>
  </g>
  <!-- Solution path hint -->
  <g stroke="#7b8cde" stroke-width="2" opacity="0.3" fill="none" stroke-dasharray="4,4">
    <path d="M210,50 L210,75 L300,75 L300,115 L380,115 L380,155 L450,155 L450,195 L540,195 L540,235 L590,235 L590,270"/>
  </g>
  <!-- Start/end markers -->
  <rect x="202" y="42" width="35" height="35" fill="rgba(80,200,120,0.2)" rx="2"/>
  <rect x="563" y="243" width="35" height="35" fill="rgba(200,80,80,0.2)" rx="2"/>
  <!-- Title -->
  <text x="400" y="320" text-anchor="middle" font-family="monospace" font-size="22" fill="#7b8cde">лабиринты</text>
  <text x="400" y="348" text-anchor="middle" font-family="monospace" font-size="11" fill="#6a6a7a">четыре алгоритма. четыре характера.</text>
  <text x="400" y="380" text-anchor="middle" font-family="monospace" font-size="14" fill="#6a6a7a">signal/lab</text>
</svg>
