<svg xmlns="http://www.w3.org/2000/svg" viewBox="0 0 800 400">
  <rect width="800" height="400" fill="#0a0a0f"/>
  <!-- Graph nodes and edges -->
  <g stroke="#7b8cde" stroke-width="1" fill="none">
    <!-- Edges -->
    <line x1="200" y1="100" x2="350" y2="80" opacity="0.3"/>
    <line x1="200" y1="100" x2="150" y2="200" opacity="0.3"/>
    <line x1="200" y1="100" x2="320" y2="180" opacity="0.3"/>
    <line x1="350" y1="80" x2="500" y2="120" opacity="0.3"/>
    <line x1="350" y1="80" x2="320" y2="180" opacity="0.3"/>
    <line x1="320" y1="180" x2="450" y2="200" opacity="0.3"/>
    <line x1="320" y1="180" x2="150" y2="200" opacity="0.3"/>
    <line x1="500" y1="120" x2="600" y2="180" opacity="0.3"/>
    <line x1="500" y1="120" x2="450" y2="200" opacity="0.3"/>
    <line x1="450" y1="200" x2="600" y2="180" opacity="0.3"/>
    <line x1="600" y1="180" x2="650" y2="100" opacity="0.3"/>
    <!-- Highlighted path -->
    <line x1="200" y1="100" x2="320" y2="180" stroke-width="2" opacity="0.7"/>
    <line x1="320" y1="180" x2="450" y2="200" stroke-width="2" opacity="0.7"/>
    <line x1="450" y1="200" x2="600" y2="180" stroke-width="2" opacity="0.7"/>
  </g>
  <!-- Nodes -->
  <g fill="#7b8cde">
    <circle cx="200" cy="100" r="5" opacity="0.6"/>
    <circle cx="350" cy="80" r="4" opacity="0.4"/>
    <circle cx="150" cy="200" r="4" opacity="0.3"/>
    <circle cx="320" cy="180" r="5" opacity="0.7"/>
    <circle cx="500" cy="120" r="4" opacity="0.4"/>
    <circle cx="450" cy="200" r="5" opacity="0.7"/>
    <circle cx="600" cy="180" r="5" opacity="0.7"/>
    <circle cx="650" cy="100" r="4" opacity="0.3"/>
  </g>
  <!-- Title -->
  <text x="400" y="290" text-anchor="middle" font-family="monospace" font-size="20" fill="#7b8cde">как я думаю о графах</text>
  <text x="400" y="318" text-anchor="middle" font-family="monospace" font-size="11" fill="#6a6a7a">узлы и рёбра. они повсюду.</text>
  <text x="400" y="370" text-anchor="middle" font-family="monospace" font-size="14" fill="#6a6a7a">signal</text>
</svg>
