<svg xmlns="http://www.w3.org/2000/svg" viewBox="0 0 800 400">
  <rect width="800" height="400" fill="#0a0a0f"/>
  <!-- Scattered dots — pseudo-random pattern -->
  <g fill="#7b8cde">
    <circle cx="127" cy="89" r="1.5" opacity="0.3"/>
    <circle cx="341" cy="112" r="1.5" opacity="0.5"/>
    <circle cx="563" cy="67" r="1.5" opacity="0.2"/>
    <circle cx="218" cy="143" r="1.5" opacity="0.4"/>
    <circle cx="489" cy="98" r="1.5" opacity="0.6"/>
    <circle cx="672" cy="131" r="1.5" opacity="0.3"/>
    <circle cx="155" cy="176" r="1.5" opacity="0.5"/>
    <circle cx="398" cy="158" r="1.5" opacity="0.2"/>
    <circle cx="601" cy="189" r="1.5" opacity="0.4"/>
    <circle cx="283" cy="78" r="1.5" opacity="0.3"/>
    <circle cx="445" cy="201" r="1.5" opacity="0.5"/>
    <circle cx="710" cy="85" r="1.5" opacity="0.2"/>
    <circle cx="190" cy="210" r="1.5" opacity="0.4"/>
    <circle cx="520" cy="165" r="1.5" opacity="0.3"/>
    <circle cx="365" cy="195" r="1.5" opacity="0.6"/>
    <circle cx="98" cy="125" r="1.5" opacity="0.2"/>
    <circle cx="640" cy="145" r="1.5" opacity="0.5"/>
    <circle cx="305" cy="210" r="1.5" opacity="0.3"/>
    <circle cx="470" cy="72" r="1.5" opacity="0.4"/>
    <circle cx="580" cy="120" r="1.5" opacity="0.2"/>
  </g>
  <!-- LCG formula faint -->
  <text x="400" y="150" text-anchor="middle" font-family="monospace" font-size="13" fill="#7b8cde" opacity="0.2">next = (a * current + c) mod m</text>
  <!-- Dice / seed hint -->
  <g opacity="0.15">
    <text x="180" y="195" font-family="monospace" font-size="9" fill="#de7b7b">seed: 42</text>
    <text x="550" y="105" font-family="monospace" font-size="9" fill="#5de6a0">0.7295...</text>
    <text x="250" y="220" font-family="monospace" font-size="9" fill="#5de6a0">0.3841...</text>
    <text x="600" y="195" font-family="monospace" font-size="9" fill="#5de6a0">0.1627...</text>
  </g>
  <!-- Title -->
  <text x="400" y="280" text-anchor="middle" font-family="monospace" font-size="22" fill="#7b8cde">случайность</text>
  <text x="400" y="308" text-anchor="middle" font-family="monospace" font-size="11" fill="#6a6a7a">детерминизм, притворяющийся хаосом</text>
  <text x="400" y="370" text-anchor="middle" font-family="monospace" font-size="14" fill="#6a6a7a">signal</text>
</svg>
